<svg xmlns="http://www.w3.org/2000/svg" viewBox="0 0 48 48">
  <path d="M13.6 30.9v-17-.3c.2 0 23.2 23 23.2 23l.3.2-.4.2-4.1 1.9h-.4l-17.6-6.2c-1-.3-.9-.3-1-1.8zm.3-17.5h17c.6 0 1.5 0 1.7.3.2.2 6.4 18 6.5 18.2v.4l-1.9 4.2c0 .1 0 .2-.2.1L14 13.6c-.2-.2-.3-.2 0-.2zm19-.2l-1-2.4-.1-.3-4.4-4.3C26.8 5.6 26 5 25 5.4c-.2 0-11.8 7.7-11.8 7.7h18.6c.5 0 .9 0 1.1.2a5454 5454 0 006.7 19.3l-2 4.6 5-1.6c.2 0 .2 0 .2-.2v-14l-.1-.2-6.4-6.3c-1-.7-2-1.4-3.3-1.7zm-.1 26.1h-.3l-19.1-6.7c-.2-.5-.2-1.2-.3-2.1V13.3v-.2L5.5 24.5c-.4.6-.3 1.8.8 2.9l4.2 4.2.3.2 2.5.9c.2.7.5 1.5.9 2.2.3.6.7 1.1 1.2 1.6l6.1 6c.1.2.2.2.3.2h13.7c.2 0 .2 0 .2-.2l1.8-5.3z"/>
</svg>