<svg version="1.1" viewBox="0 0 48 48" xmlns="http://www.w3.org/2000/svg">
 <path d="m13.614 30.878-0.03204-16.983c-0.0041-0.13439 4.41e-4 -0.33571 0.09947-0.30987 0.08767 0.04522 23.162 22.988 23.162 22.988 0.07249 0.07202 0.13825 0.15075 0.23098 0.19932 0.02272 0.05149-0.04143 0.10787-0.40295 0.27134l-4.1205 1.8157c-0.11465 0.05025-0.21749 0.03517-0.32876-0.0016l-17.62-6.1724c-1.0343-0.33459-0.86873-0.26148-0.98798-1.8073zm0.28999-17.485h16.912c0.64672 0.0037 1.6003 0.07366 1.804 0.27972 0.145 0.23282 6.3865 17.942 6.4977 18.214 0.05394 0.134 0.0371 0.25627-0.02192 0.39027l-1.8866 4.2193c-0.06848 0.1216-0.0757 0.20951-0.18883 0.12395 0 0-15.465-15.365-23.145-22.994-0.20981-0.21069-0.22984-0.19876 0.02866-0.23282zm18.949-0.1677-0.86028-2.4302c-0.045525-0.13232-0.11465-0.23785-0.21412-0.335l-4.3684-4.2997c-0.61888-0.53313-1.5052-1.0741-2.5104-0.79729-0.18546 0.060299-11.763 7.7183-11.763 7.7183l18.561 3.5e-5c0.46726-0.0036 0.85823 0.0698 1.1209 0.20016 0.0579 0.22121 6.4895 18.332 6.7374 19.015 0.03878 0.10552 0.02528 0.19095-0.02361 0.28642 0 0-2.0202 4.4372-2.0445 4.6151l0.03655 0.0079s4.7662-1.5041 5.036-1.5896c0.1686-0.0536 0.13994-0.0536 0.14163-0.19598l0.01017-13.961c0.0017-0.1206-0.03541-0.20603-0.12139-0.29145-2.2818-2.2243-5.8997-5.9539-6.3544-6.2896-0.97707-0.72125-2.0366-1.3298-3.3833-1.6534zm-0.07968 26.076c-0.10621 0.04858-0.19558 0.05527-0.30348 0.01675-0.59008-0.21273-19.108-6.6934-19.108-6.6934-0.0014-0.03788-0.01832-0.07455-0.02735-0.11044-0.15181-0.42324-0.16683-1.1245-0.19726-2.0217l-0.0017-17.15c0-0.07369 0.02192-0.15326-0.02698-0.22361l-7.597 11.362c-0.42498 0.63139-0.27779 1.8012 0.75869 2.8793l4.2655 4.2762c0.0725 0.07369 0.15174 0.12562 0.24953 0.15912l2.5055 0.86573c0.21072 0.77404 0.51981 1.519 0.90691 2.2213 0.32033 0.57787 0.6845 1.1273 1.165 1.5912l6.1842 6.1103c0.07082 0.07369 0.14668 0.10217 0.24952 0.10217l13.729 0.02513c0.17028 0 0.17028-0.0034 0.22086-0.16414l1.7113-5.303z" stroke-width=".073333"/>
</svg>
