<svg version="1.1" viewBox="0 0 24 24" xmlns="http://www.w3.org/2000/svg">
 <path d="m5.5873 18.259c-1.4349-0.7164-2.6591-1.3843-2.7836-1.5185l-0.22226-0.23973-0.023988-6.2737c-0.021153-5.5313-0.0077583-6.2985 0.11319-6.483 0.075446-0.11514 0.18626-0.21085 0.24625-0.21268 0.059993-0.00158 1.4193 0.64724 3.0208 1.4424l2.9117 1.4457v6.3616c0 6.927 0.01231 6.7568-0.48872 6.7568-0.11656 0-1.3645-0.57546-2.7732-1.2788zm12.573-0.06096c-2.439-1.226-2.4679-1.2438-2.356-1.4486 0.06228-0.11403 1.3735-2.2529 2.9138-4.753l2.8005-4.5457 0.02286 5.7913c0.02005 5.0751 6e-3 5.817-0.11319 5.999-0.26524 0.4048-0.60009 0.29791-3.268-1.0432zm-5.999-2.9543-2.8672-1.439v-3.2412c0-1.8912 0.032867-3.206 0.078906-3.1568 0.16473 0.17632 5.7456 9.2942 5.6809 9.2809-0.01395-0.0024-1.3156-0.6526-2.8926-1.4441zm1.2225-2.1712c-1.1002-1.7926-2.0093-3.3017-2.0201-3.3535-0.01088-0.05186 0.80929-1.4337 1.8226-3.0708 1.4874-2.4031 1.8903-2.9934 2.0915-3.0639 0.22372-0.078375 0.54907 0.062225 3.1855 1.3763 1.615 0.80494 2.9559 1.4942 2.9798 1.5317 0.04368 0.068479-5.9313 9.8455-6.0144 9.8419-0.02444-7.91e-4 -0.94462-1.4687-2.0448-3.2613z" stroke-width=".088906"/>
</svg>
