<svg width="48" height="48" version="1.1" viewBox="0 0 12.7 12.7" xmlns="http://www.w3.org/2000/svg">
 <g transform="translate(0 -284.3)">
  <path d="m6.6218 296.04c-0.11534-0.0467-0.11534-0.0467-0.12881-0.36502-0.013983-0.33035-0.045756-0.56145-0.10753-0.78212-0.045563-0.16277-0.034923-0.14928-0.28117-0.35643-0.60614-0.50992-1.1889-1.2752-1.5232-2.0003-0.33017-0.71612-0.47312-1.3932-0.46249-2.1905 0.017541-1.3146 0.43006-2.6304 1.142-3.6425 0.28693-0.40791 0.55971-0.70887 1.0061-1.1101 0.20293-0.18239 0.26624-0.28059 0.29515-0.45781 0.019261-0.11808 0.019261-0.11808 0.12271 0.1056 0.15766 0.34089 0.26394 0.49328 0.60088 0.86169 0.17019 0.18609 0.36799 0.4141 0.43955 0.50669 0.66633 0.86216 1.1908 2.1504 1.3038 3.2023 0.15303 1.425-0.21981 2.7629-1.083 3.8862-0.18429 0.23983-0.73538 0.79028-0.89226 0.89123-0.22552 0.14513-0.27081 0.30848-0.27557 0.99398-0.00195 0.28021-0.011922 0.5082-0.022161 0.50664-0.010239-2e-3 -0.070519-0.0239-0.13395-0.0496z" stroke-width=".025721"/>
 </g>
</svg>
