<svg width="500" height="250" version="1.1" viewBox="0 0 132.29 66.146" xmlns="http://www.w3.org/2000/svg">
 <g transform="translate(0 -230.85)">
  <path transform="matrix(.26458 0 0 .26458 -.001 230.85)" d="m0-0.039062v10.145l0.0078125-0.0078a10.246 10.246 0 0 0-0.0019531 0.14842v229.51a10.246 10.246 0 0 0 10.246 10.246h479.5a10.246 10.246 0 0 0 10.244-10.246v-229.51a10.246 10.246 0 0 0-0.0137-0.25977l0.0137 0.013672v-10l-9.4609 0.037109a10.246 10.246 0 0 0-1.0879-0.029297l-4e-3 -0.0019531a10.246 10.246 0 0 0-4.1112 0.99609c-78.563 37.545-229.97 109.91-235.69 112.64-5.6986-2.7318-156.65-75.086-234.97-112.63a10.246 10.246 0 0 0-4.5352-0.99414l0.017578-0.017578z" color="#000000"/>
 </g>
</svg>
