<svg version="1.1" viewBox="0 0 484 998" xmlns="http://www.w3.org/2000/svg">
 <path d="m47.844 0c-26.506 0-47.844 21.338-47.844 47.844v902.31c0 26.506 21.338 47.844 47.844 47.844h388.31c26.506 0 47.844-21.338 47.844-47.844v-902.31c0-26.506-21.338-47.844-47.844-47.844h-388.31zm385.88 5.7734c24.03-0.013333 43.375 21.045 43.375 47.217v890.97c0 26.172-19.345 47.252-43.375 47.266l-383.61 0.21289c-24.03 0.01333-43.375-21.045-43.375-47.217v-890.97c0-26.172 19.345-47.252 43.375-47.266l383.61-0.21289z" fill="#d0d0d0" style="paint-order:markers stroke fill"/>
 <path d="m433.72 5.7734-383.61 0.21289c-24.03 0.013333-43.375 21.094-43.375 47.266v890.97c0 26.172 19.345 47.23 43.375 47.217l383.61-0.21289c24.03-0.0133 43.375-21.094 43.375-47.266v-890.97c0-26.172-19.345-47.23-43.375-47.217zm-17.389 66.604c21.951-0.01166 39.621 18.404 39.621 41.291v779.15c0 22.887-17.67 41.322-39.621 41.334l-350.42 0.1875c-21.951 0.0117-39.621-18.406-39.621-41.293v-779.15c0-22.887 17.67-41.322 39.621-41.334z" style="paint-order:markers stroke fill"/>
</svg>
